<svg width="817" height="151" viewBox="0 0 817 151" fill="none" xmlns="http://www.w3.org/2000/svg">
<rect width="178" height="18" rx="5" fill="#6C63FF"/>
<rect x="186" width="274" height="18" rx="5" fill="#6C63FF"/>
<rect x="468" width="118" height="18" rx="5" fill="#6C63FF"/>
<rect x="594" width="118" height="18" rx="5" fill="#6C63FF"/>
<rect y="29" width="303" height="18" rx="5" fill="#6C63FF"/>
<rect x="311" y="29" width="303" height="18" rx="5" fill="#6C63FF"/>
<rect x="622" y="29" width="168" height="18" rx="5" fill="#6C63FF"/>
<rect y="58" width="91" height="18" rx="5" fill="#6C63FF"/>
<rect x="99" y="58" width="291" height="18" rx="5" fill="#6C63FF"/>
<rect x="398" y="58" width="291" height="18" rx="5" fill="#6C63FF"/>
<rect y="104" width="186" height="18" rx="5" fill="#6C63FF"/>
<rect x="194" y="104" width="315" height="18" rx="5" fill="#6C63FF"/>
<rect x="517" y="104" width="172" height="18" rx="5" fill="#6C63FF"/>
<rect x="697" y="104" width="93" height="18" rx="5" fill="#6C63FF"/>
<rect y="133" width="817" height="18" rx="5" fill="#6C63FF"/>
<rect x="697" y="58" width="56" height="18" rx="5" fill="#6C63FF"/>
</svg>
